<svg viewBox="0 0 2500 1768" xmlns="http://www.w3.org/2000/svg" fill-rule="evenodd" clip-rule="evenodd" stroke-linejoin="round" stroke-miterlimit="2"><path d="M1251.9 882.721c0 27.784-1.38 55.003-4.12 81.656-2.75 26.653-7.59 52.013-14.54 76.083-6.95 24.07-16.48 46.52-28.59 67.36-12.12 20.84-27.38 39.17-45.8 55-18.41 15.83-40.54 28.83-66.39 39.01-25.84 10.18-56.05 16.56-90.62 19.14-88.841 0-155.555-22.45-200.138-67.36-44.583-44.9-66.875-111.29-66.875-199.168V936.27c0-9.854.162-22.13.485-36.83.323-14.699.726-31.176 1.211-49.429a1363.324 1363.324 0 012.665-55.972 1981.604 1981.604 0 014.604-56.214c1.777-18.415 4.119-35.214 7.027-50.398H920.43c-6.139 31.983-10.662 65.744-13.569 101.282-2.908 35.537-4.362 71.882-4.362 109.035 0 34.245 1.373 68.248 4.119 102.009 2.746 33.757 7.35 65.827 13.812 96.197a714.114 714.114 0 0035.133 3.87 405.26 405.26 0 0034.165 1.46c10.982 0 22.372-.49 34.162-1.46s23.34-2.26 34.65-3.87c3.56-30.37 6.22-62.28 8-95.71 1.77-33.44 2.66-67.282 2.66-101.527 0-37.476-.89-74.063-2.66-109.762-1.78-35.699-4.44-69.541-8-101.524h175.43c7.11 37.799 11.87 73.498 14.29 107.097 2.43 33.599 3.64 62.998 3.64 88.197z" fill="#59e869" fill-rule="nonzero"/><path d="M1041.01 1078.73c2.7-25.45 4.78-51.96 6.24-79.518 1.76-33.1 2.64-66.599 2.64-100.499 0-37.148-.88-73.415-2.64-108.802-1.76-35.287-4.39-68.737-7.9-100.351l-2.39-21.448h213.03l2.96 15.746c7.25 38.568 12.11 74.994 14.58 109.277 2.46 34.128 3.68 63.99 3.68 89.586 0 28.458-1.41 56.336-4.22 83.635-2.87 27.837-7.94 54.324-15.19 79.464-7.4 25.62-17.55 49.52-30.45 71.71-13.21 22.71-29.84 42.69-49.91 59.94-19.95 17.15-43.89 31.31-71.9 42.33-27.46 10.82-59.53 17.69-96.26 20.43l-1.44.06c-95.073 0-166.134-25.01-213.844-73.07-47.7-48.04-72.483-118.76-72.483-212.778V936.27c0-9.967.162-22.385.489-37.254.324-14.726.728-31.232 1.214-49.518.491-18.512 1.392-37.434 2.702-56.765a2000.041 2000.041 0 014.649-56.763c1.84-19.064 4.272-36.456 7.282-52.176l3.003-15.682h208.951l-4.405 22.955c-6.013 31.331-10.439 64.404-13.287 99.217-2.866 35.024-4.298 70.844-4.298 107.46 0 33.72 1.352 67.201 4.056 100.443 2.275 27.963 5.852 54.733 10.747 80.313 6.944.82 13.802 1.51 20.574 2.08 10.923.92 21.769 1.38 32.538 1.38 10.472 0 21.332-.46 32.582-1.39 6.31-.51 12.54-1.13 18.7-1.84zm210.89-196.009c0 27.784-1.38 55.003-4.12 81.656-2.75 26.653-7.59 52.013-14.54 76.083-6.95 24.07-16.48 46.52-28.59 67.36-12.12 20.84-27.38 39.17-45.8 55-18.41 15.83-40.54 28.83-66.39 39.01-25.84 10.18-56.05 16.56-90.62 19.14-88.841 0-155.555-22.45-200.138-67.36-44.583-44.9-66.875-111.29-66.875-199.168V936.27c0-9.854.162-22.13.485-36.83.323-14.699.726-31.176 1.211-49.429a1363.324 1363.324 0 012.665-55.972 1981.604 1981.604 0 014.604-56.214c1.777-18.415 4.119-35.214 7.027-50.398H920.43c-6.139 31.983-10.662 65.744-13.569 101.282-2.908 35.537-4.362 71.882-4.362 109.035 0 34.245 1.373 68.248 4.119 102.009 2.746 33.757 7.35 65.827 13.812 96.197a714.114 714.114 0 0035.133 3.87 405.26 405.26 0 0034.165 1.46c10.982 0 22.372-.49 34.162-1.46s23.34-2.26 34.65-3.87c3.56-30.37 6.22-62.28 8-95.71 1.77-33.44 2.66-67.282 2.66-101.527 0-37.476-.89-74.063-2.66-109.762-1.78-35.699-4.44-69.541-8-101.524h175.43c7.11 37.799 11.87 73.498 14.29 107.097 2.43 33.599 3.64 62.998 3.64 88.197z" fill="#fff"/><path d="M1506.31 460.148c-8.4 121.474-13.97 242.382-16.71 362.725a15749.333 15749.333 0 00-4.12 359.817h-151.2c1.61-59.44 2.75-118.4 3.39-176.88.65-58.475.97-117.273.97-176.395 0-62.029-.32-123.573-.97-184.633-.64-61.06-1.78-122.605-3.39-184.634h172.03z" fill="#59e869" fill-rule="nonzero"/><path d="M1527.01 440.834h-212.55l.51 19.817c1.62 61.929 2.74 123.374 3.39 184.335.64 60.992.97 122.469.97 184.429 0 59.05-.33 117.777-.97 176.185-.65 58.37-1.77 117.23-3.39 176.56l-.54 19.84h190.36v-19.31c0-119.39 1.37-239.181 4.11-359.376 2.74-120.047 8.3-240.658 16.68-361.833l1.43-20.647zm-20.7 19.314c-8.4 121.474-13.97 242.382-16.71 362.725a15749.333 15749.333 0 00-4.12 359.817h-151.2c1.61-59.44 2.75-118.4 3.39-176.88.65-58.475.97-117.273.97-176.395 0-62.029-.32-123.573-.97-184.633-.64-61.06-1.78-122.605-3.39-184.634h172.03z" fill="#fff"/><path d="M2388.29 963.165l-378.96 30.53a910.083 910.083 0 006.79 59.605c2.9 19.71 6.62 39.58 11.14 59.61 28.43 1.94 55.89 2.91 82.38 2.91 14.54 0 28.59-.25 42.16-.73 13.57-.49 27.63-1.21 42.16-2.18.65-6.46 1.13-12.92 1.46-19.39.32-6.46.48-12.92.48-19.38 0-5.82-.08-11.55-.24-17.2-.16-5.66-.73-11.39-1.7-17.21l182.7 3.88c-9.05 30.69-22.05 57.02-39.01 78.99-16.96 21.97-36.99 39.98-60.09 54.03-23.1 14.06-48.87 24.31-77.3 30.77-28.43 6.47-58.31 9.7-89.65 9.7-38.44 0-74.55-5.17-108.31-15.51-33.76-10.34-63.16-27.06-88.19-50.16-25.04-23.1-44.75-53.22-59.13-90.37-14.37-37.16-21.56-82.711-21.56-136.663 0-43.614 7.59-81.09 22.78-112.428 15.18-31.337 35.45-57.183 60.81-77.536s54.76-35.295 88.2-44.826c33.44-9.53 68.57-14.295 105.4-14.295 38.45 0 74.55 5.169 108.31 15.507 33.76 10.338 63.16 26.492 88.2 48.46 25.04 21.969 44.82 50.076 59.36 84.321s21.81 75.113 21.81 122.604v16.961zm-383.81-71.236h194.33c0-40.061-4.04-78.183-12.11-114.366-27.79-5.816-56.86-8.723-87.23-8.723-29.73 0-59.77 2.907-90.14 8.723a767.472 767.472 0 00-3.88 55.002c-.64 18.576-.97 38.364-.97 59.364z" fill="#59e869" fill-rule="nonzero"/><path d="M2176.01 1094.64l.58-20.5c0-5.63-.08-11.18-.24-16.65-.13-4.79-.62-9.65-1.44-14.58l-3.83-22.98 231.25 4.91-7.15 24.23c-9.77 33.17-23.91 61.59-42.24 85.33-18.44 23.89-40.23 43.45-65.34 58.73-24.83 15.11-52.5 26.17-83.06 33.11-29.78 6.77-61.09 10.17-93.93 10.17-40.45 0-78.44-5.47-113.96-16.35-36.62-11.21-68.49-29.38-95.64-54.43-27.06-24.97-48.5-57.45-64.04-97.6-15.11-39.06-22.86-86.916-22.86-143.633 0-46.898 8.38-87.152 24.71-120.849 16.49-34.039 38.56-62.071 66.1-84.178 27.33-21.927 58.97-38.07 95-48.337 35.12-10.01 72.01-15.036 110.69-15.036 40.46 0 78.44 5.476 113.97 16.354 36.48 11.171 68.22 28.671 95.28 52.41 27.12 23.801 48.65 54.19 64.4 91.291 15.44 36.363 23.34 79.725 23.34 130.152v34.782l-377.25 30.394c1.33 13.1 2.96 26.14 4.87 39.1a770.44 770.44 0 007.83 44.05c22.84 1.32 45.04 1.97 66.59 1.97 14.3 0 28.13-.24 41.47-.71 8.13-.29 16.42-.67 24.9-1.15zm212.28-131.475l-378.96 30.53a910.083 910.083 0 006.79 59.605c2.9 19.71 6.62 39.58 11.14 59.61 28.43 1.94 55.89 2.91 82.38 2.91 14.54 0 28.59-.25 42.16-.73 13.57-.49 27.63-1.21 42.16-2.18.65-6.46 1.13-12.92 1.46-19.39.32-6.46.48-12.92.48-19.38 0-5.82-.08-11.55-.24-17.2-.16-5.66-.73-11.39-1.7-17.21l182.7 3.88c-9.05 30.69-22.05 57.02-39.01 78.99-16.96 21.97-36.99 39.98-60.09 54.03-23.1 14.06-48.87 24.31-77.3 30.77-28.43 6.47-58.31 9.7-89.65 9.7-38.44 0-74.55-5.17-108.31-15.51-33.76-10.34-63.16-27.06-88.19-50.16-25.04-23.1-44.75-53.22-59.13-90.37-14.37-37.16-21.56-82.711-21.56-136.663 0-43.614 7.59-81.09 22.78-112.428 15.18-31.337 35.45-57.183 60.81-77.536s54.76-35.295 88.2-44.826c33.44-9.53 68.57-14.295 105.4-14.295 38.45 0 74.55 5.169 108.31 15.507 33.76 10.338 63.16 26.492 88.2 48.46 25.04 21.969 44.82 50.076 59.36 84.321s21.81 75.113 21.81 122.604v16.961zm-383.81-71.236h194.33c0-40.061-4.04-78.183-12.11-114.366-27.79-5.816-56.86-8.723-87.23-8.723-29.73 0-59.77 2.907-90.14 8.723a767.472 767.472 0 00-3.88 55.002c-.64 18.576-.97 38.364-.97 59.364zm165.93-97.816c-22.76-3.981-46.41-5.959-70.94-5.959-23.9 0-48 1.963-72.33 5.887a751.69 751.69 0 00-2.38 39.195c-.44 12.567-.73 25.694-.86 39.379h155.26c-.93-27.121-3.84-53.29-8.75-78.502z" fill="#fff"/><path d="M153.991 1130.6a8357.115 8357.115 0 0010.281-200.145c2.6-66.229 3.9-132.943 3.9-200.141 0-32.307-.414-64.291-1.241-95.951a8849.54 8849.54 0 00-3.013-95.467l-101.752-2.907V426.953c41.835-.646 83.257-2.665 124.265-6.057 41.008-3.393 82.429-7.996 124.264-13.812a5433.46 5433.46 0 00-2.836 123.574c-.473 41.03-.709 82.221-.709 123.573 0 79.798 1.182 159.111 3.545 237.94 2.364 78.829 5.791 158.299 10.282 238.429H153.991z" fill="#ff39a0" fill-rule="nonzero"/><path d="M145.26 557.685l-102.408-2.926V407.935l19.016-.294c41.399-.639 82.389-2.637 122.97-5.994 40.656-3.363 81.722-7.928 123.198-13.693l22.749-3.162-.787 22.954a5412.155 5412.155 0 00-2.826 123.134c-.472 40.956-.708 82.073-.708 123.351a7919.05 7919.05 0 003.537 237.361c2.358 78.663 5.779 157.968 10.26 237.918l1.143 20.4H133.415l1.3-20.53a8334.988 8334.988 0 0010.258-199.683c2.59-65.978 3.885-132.439 3.885-199.383 0-32.137-.412-63.953-1.235-95.447a8555.637 8555.637 0 00-2.363-77.182zm8.731 572.915a8357.115 8357.115 0 0010.281-200.145c2.6-66.229 3.9-132.943 3.9-200.141 0-32.307-.414-64.291-1.241-95.951a8849.54 8849.54 0 00-3.013-95.467l-101.752-2.907V426.953c41.835-.646 83.257-2.665 124.265-6.057 41.008-3.393 82.429-7.996 124.264-13.812a5433.46 5433.46 0 00-2.836 123.574c-.473 41.03-.709 82.221-.709 123.573 0 79.798 1.182 159.111 3.545 237.94 2.364 78.829 5.791 158.299 10.282 238.429H153.991z" fill="#fff"/><path d="M1233.42 595.915H761.419a57.346 57.346 0 01-1.725-12.429 414.172 414.172 0 01-.192-12.429c0-13.494 1.214-26.515 3.643-39.062 2.428-12.547 5.623-24.443 9.585-35.688 3.961-11.245 8.498-21.78 13.61-31.605s10.352-18.88 15.72-27.166c12.269-19.412 26.455-36.931 42.558-52.556 10.735-8.759 25.815-18.11 45.241-28.053 16.614-8.523 53.522-18.288 80.743-29.297 27.222-11.008 61.408-22.668 102.558-34.978 4.6-21.306 6.9-42.495 6.9-63.564 0-13.495-.89-26.634-2.68-39.417a407.335 407.335 0 00-7.28-38.352 559.45 559.45 0 00-31.64-2.664c-10.6-.591-21.27-.887-32.01-.887-31.183 0-62.622 2.959-94.317 8.877a831.486 831.486 0 00-3.834 33.381c-1.022 10.89-1.533 22.016-1.533 33.38 0 18.229 1.533 36.221 4.601 53.976H759.922a129.047 129.047 0 01-.766-13.849v-13.139c0-23.911 3.578-44.98 10.735-63.209 7.157-18.229 16.55-34.091 28.18-47.585 11.63-13.494 24.921-24.857 39.874-34.09 14.953-9.233 30.225-16.809 45.817-22.727 36.551-13.968 78.214-21.899 124.988-23.792 38.85 0 72.27 4.083 100.26 12.251 27.99 8.167 50.99 19.353 69.01 33.558 18.02 14.204 31.31 30.894 39.88 50.07 8.56 19.176 12.84 39.89 12.84 62.144 0 23.911-5.05 45.276-15.14 64.097-10.1 18.821-23.39 35.629-39.88 50.425-16.48 14.797-35.14 27.758-55.97 38.885-20.84 11.127-41.92 20.951-63.27 29.474-21.34 8.522-42.04 15.98-62.107 22.372-20.065 6.392-37.509 12.073-52.334 17.045l-4.985 50.425h286.786l9.58 106.178z" fill="#ff39a0" fill-rule="nonzero"/><path d="M929.509 173.249a737.149 737.149 0 00-1.98 18.582c-.967 10.301-1.449 20.826-1.449 31.575 0 17.118 1.438 34.015 4.319 50.689l3.904 22.602H742.581l-1.861-17.241a148.264 148.264 0 01-.879-15.923v-13.139c0-26.589 4.113-49.997 12.072-70.268 7.995-20.365 18.535-38.059 31.528-53.135 12.936-15.01 27.724-27.645 44.356-37.915 16.027-9.896 32.399-18.007 49.07-24.335 38.344-14.653 82.033-23.062 131.103-25.049l.78-.016c40.95 0 76.17 4.416 105.67 13.025 30.68 8.951 55.81 21.363 75.56 36.93 20.62 16.256 35.75 35.419 45.55 57.364 9.65 21.609 14.53 44.942 14.53 70.019 0 27.328-5.9 51.717-17.44 73.227-11.15 20.773-25.8 39.339-44 55.67-17.6 15.803-37.52 29.662-59.77 41.546-21.47 11.467-43.21 21.591-65.2 30.375-21.79 8.701-42.93 16.312-63.41 22.838a4070.04 4070.04 0 00-40.214 13.015l-1.654 16.738h283.118l13.07 144.806H746.398L742.7 600.67a76.566 76.566 0 01-2.312-16.605c-.133-4.46-.2-8.796-.2-13.008 0-14.762 1.338-29.005 3.994-42.732 2.615-13.514 6.064-26.325 10.331-38.436 4.275-12.135 9.177-23.5 14.694-34.102 5.411-10.399 10.961-19.981 16.526-28.569 13.097-20.723 28.245-39.42 45.435-56.099l1.239-1.104c11.557-9.429 27.74-19.578 48.637-30.273 16.948-8.694 54.549-18.788 82.317-30.017 25.174-10.181 56.199-20.921 93.089-32.193 2.86-16.222 4.3-32.37 4.3-48.444 0-12.578-.83-24.825-2.5-36.74a382.063 382.063 0 00-3.98-23.194c-5.61-.498-11.24-.899-16.88-1.214a555.107 555.107 0 00-30.94-.858c-25.47 0-51.118 2.055-76.941 6.167zm303.911 422.666H761.419a57.346 57.346 0 01-1.725-12.429 414.172 414.172 0 01-.192-12.429c0-13.494 1.214-26.515 3.643-39.062 2.428-12.547 5.623-24.443 9.585-35.688 3.961-11.245 8.498-21.78 13.61-31.605s10.352-18.88 15.72-27.166c12.269-19.412 26.455-36.931 42.558-52.556 10.735-8.759 25.815-18.11 45.241-28.053 16.614-8.523 53.522-18.288 80.743-29.297 27.222-11.008 61.408-22.668 102.558-34.978 4.6-21.306 6.9-42.495 6.9-63.564 0-13.495-.89-26.634-2.68-39.417a407.335 407.335 0 00-7.28-38.352 559.45 559.45 0 00-31.64-2.664c-10.6-.591-21.27-.887-32.01-.887-31.183 0-62.622 2.959-94.317 8.877a831.486 831.486 0 00-3.834 33.381c-1.022 10.89-1.533 22.016-1.533 33.38 0 18.229 1.533 36.221 4.601 53.976H759.922a129.047 129.047 0 01-.766-13.849v-13.139c0-23.911 3.578-44.98 10.735-63.209 7.157-18.229 16.55-34.091 28.18-47.585 11.63-13.494 24.921-24.857 39.874-34.09 14.953-9.233 30.225-16.809 45.817-22.727 36.551-13.968 78.214-21.899 124.988-23.792 38.85 0 72.27 4.083 100.26 12.251 27.99 8.167 50.99 19.353 69.01 33.558 18.02 14.204 31.31 30.894 39.88 50.07 8.56 19.176 12.84 39.89 12.84 62.144 0 23.911-5.05 45.276-15.14 64.097-10.1 18.821-23.39 35.629-39.88 50.425-16.48 14.797-35.14 27.758-55.97 38.885-20.84 11.127-41.92 20.951-63.27 29.474-21.34 8.522-42.04 15.98-62.107 22.372-20.065 6.392-37.509 12.073-52.334 17.045l-4.985 50.425h286.786l9.58 106.178z" fill="#fff"/><path d="M2395.07 459.218c-.15 14.788-3.53 28.403-10.16 40.844-6.63 12.441-15.62 23.608-26.98 33.501-11.37 9.892-24.58 18.571-39.63 26.035-15.06 7.464-31.09 13.831-48.1 19.101-17 5.269-34.52 9.338-52.55 12.205-18.03 2.867-35.64 4.542-52.83 5.025-16.96-.167-33.96-1.748-51-4.744-17.04-2.995-33.37-7.289-49-12.88-15.62-5.592-30.25-12.424-43.87-20.497-13.62-8.073-25.55-17.271-35.79-27.594-10.23-10.324-18.48-21.824-24.74-34.5-6.27-12.677-9.79-26.306-10.58-40.886l131.42-7.186c1.03 13.495 3.17 26.566 6.41 39.213 3.25 12.646 8.06 25.2 14.44 37.66 21.13.209 42.62.094 64.46-.343 21.84-.437 44.27-2.065 67.29-4.883 2.41-9.111 4.18-18.119 5.32-27.026a233.046 233.046 0 001.83-27.06c.21-21.313-2.48-42.546-8.08-63.698a645.825 645.825 0 00-53.58-7.38 636.85 636.85 0 00-53.98-2.816c-7.2-.071-14.4-.033-21.6.114-7.2.146-14.52.4-21.96.762l2.65-56.089c26.95-.822 53.45-2.79 79.49-5.904a730.145 730.145 0 0077.13-13.431c3.6-11.057 6.2-22.015 7.82-32.874a240.515 240.515 0 002.59-32.926c.11-11.744-.59-23.332-2.1-34.766-1.51-11.434-3.84-23.038-6.97-34.814a360.267 360.267 0 00-27.15-2.552c-9.29-.526-18.58-.835-27.87-.927-11.38-.112-22.76.156-34.15.805a768.578 768.578 0 00-34.52 2.759c-4.36 18.662-6.64 37.345-6.82 56.048-.08 8.046.3 16.098 1.15 24.153.85 8.056 2.16 16.225 3.94 24.508l-146.02 4.106c-1.11-5.665-1.87-11.056-2.28-16.171-.42-5.116-.6-10.066-.55-14.85.21-21.313 3.47-40.04 9.78-56.181 6.32-16.142 14.53-30.144 24.63-42.007 10.11-11.862 21.59-21.863 34.44-30.001 12.86-8.138 25.93-14.861 39.22-20.167 31.48-12.305 67.2-19.13 107.17-20.476 26.94.266 50.9 2.677 71.87 7.234 20.98 4.557 39.44 10.72 55.39 18.489 15.95 7.77 29.45 16.766 40.5 26.989 11.05 10.223 20 21.186 26.85 32.89 6.85 11.703 11.79 23.769 14.8 36.196 3.01 12.427 4.46 24.621 4.34 36.582-.12 12.832-2.51 24.771-7.15 35.817-4.63 11.047-11 21.207-19.11 30.479-8.1 9.273-17.6 17.716-28.47 25.33-10.88 7.614-22.5 14.405-34.87 20.373 10.64 4.455 20 9.223 28.08 14.305 8.08 5.082 15.17 10.372 21.27 15.87 6.1 5.498 11.28 10.986 15.52 16.465 4.24 5.48 7.73 10.734 10.47 15.764 6.62 12.027 10.68 24.03 12.19 36.007z" fill="#ff39a0" fill-rule="nonzero"/><path d="M2134.77 199.38a235.184 235.184 0 00-3.55 38.324c-.07 7.308.28 14.621 1.05 21.938.78 7.39 1.99 14.884 3.62 22.482l4.87 22.705-185.6 5.219-3.14-16.068c-1.25-6.415-2.1-12.52-2.57-18.312-.47-5.718-.67-11.25-.61-16.598.23-23.919 4.02-44.913 11.11-63.028 7.14-18.261 16.48-34.073 27.91-47.494 11.39-13.366 24.33-24.626 38.81-33.796 13.9-8.795 28.03-16.051 42.52-21.837 33.36-13.039 71.2-20.364 113.55-21.79l.84-.01c28.41.28 53.66 2.868 75.78 7.673 22.63 4.916 42.54 11.616 59.75 20 17.8 8.671 32.83 18.767 45.16 30.175 12.52 11.587 22.63 24.042 30.4 37.307 7.84 13.385 13.45 27.193 16.9 41.405 3.4 14.037 5.02 27.813 4.89 41.324-.16 15.445-3.07 29.806-8.66 43.103-5.43 12.941-12.88 24.85-22.38 35.713-9.09 10.406-19.73 19.897-31.93 28.441-1.84 1.288-3.7 2.555-5.59 3.79 8.27 5.32 15.57 10.861 21.92 16.588 7.03 6.334 12.97 12.675 17.86 18.988 4.94 6.376 8.98 12.502 12.12 18.278 7.88 14.323 12.63 28.643 14.43 42.906l.16 1.296-.01 1.306c-.18 18.012-4.35 34.581-12.42 49.734-7.71 14.468-18.14 27.482-31.35 38.987-12.55 10.923-27.11 20.533-43.73 28.773-15.95 7.909-32.94 14.662-50.96 20.246-17.87 5.538-36.29 9.817-55.24 12.831-18.88 3.002-37.32 4.751-55.69 5.267l-.37-.003c-18-.178-36.05-1.854-54.14-5.035-18.15-3.189-35.53-7.766-52.17-13.718-16.81-6.018-32.54-13.378-47.21-22.066-15.1-8.949-28.31-19.168-39.66-30.612-11.72-11.83-21.16-25.017-28.34-39.544-7.42-15.009-11.61-31.138-12.54-48.401l-1.04-19.27 169.57-9.273 1.43 18.85c.95 12.349 2.89 24.31 5.86 35.883 2 7.782 4.67 15.523 8 23.225 17.04.071 34.31-.07 51.8-.42 16.95-.339 34.26-1.419 51.93-3.247.78-3.95 1.41-7.881 1.91-11.789a212.32 212.32 0 001.68-24.814c.15-15.584-1.39-31.122-4.62-46.611a622.143 622.143 0 00-39.56-5.048 617.077 617.077 0 00-52.34-2.73c-7-.069-14.01-.033-21.02.11-7.02.143-14.16.391-21.41.743l-21.23 1.033 4.48-95.173 17.87-.545c26.37-.804 52.3-2.729 77.79-5.777a710.92 710.92 0 0064.12-10.647c1.72-6.478 3.06-12.92 4.01-19.325a219.394 219.394 0 002.38-30.271c.11-10.824-.53-21.504-1.93-32.042-.86-6.498-2-13.056-3.43-19.673-4.16-.388-8.37-.701-12.64-.943a576.07 576.07 0 00-26.96-.898c-10.95-.107-21.9.151-32.86.775-6.49.37-13.01.83-19.58 1.39zm260.3 259.838c-.15 14.788-3.53 28.403-10.16 40.844-6.63 12.441-15.62 23.608-26.98 33.501-11.37 9.892-24.58 18.571-39.63 26.035-15.06 7.464-31.09 13.831-48.1 19.101-17 5.269-34.52 9.338-52.55 12.205-18.03 2.867-35.64 4.542-52.83 5.025-16.96-.167-33.96-1.748-51-4.744-17.04-2.995-33.37-7.289-49-12.88-15.62-5.592-30.25-12.424-43.87-20.497-13.62-8.073-25.55-17.271-35.79-27.594-10.23-10.324-18.48-21.824-24.74-34.5-6.27-12.677-9.79-26.306-10.58-40.886l131.42-7.186c1.03 13.495 3.17 26.566 6.41 39.213 3.25 12.646 8.06 25.2 14.44 37.66 21.13.209 42.62.094 64.46-.343 21.84-.437 44.27-2.065 67.29-4.883 2.41-9.111 4.18-18.119 5.32-27.026a233.046 233.046 0 001.83-27.06c.21-21.313-2.48-42.546-8.08-63.698a645.825 645.825 0 00-53.58-7.38 636.85 636.85 0 00-53.98-2.816c-7.2-.071-14.4-.033-21.6.114-7.2.146-14.52.4-21.96.762l2.65-56.089c26.95-.822 53.45-2.79 79.49-5.904a730.145 730.145 0 0077.13-13.431c3.6-11.057 6.2-22.015 7.82-32.874a240.515 240.515 0 002.59-32.926c.11-11.744-.59-23.332-2.1-34.766-1.51-11.434-3.84-23.038-6.97-34.814a360.267 360.267 0 00-27.15-2.552c-9.29-.526-18.58-.835-27.87-.927-11.38-.112-22.76.156-34.15.805a768.578 768.578 0 00-34.52 2.759c-4.36 18.662-6.64 37.345-6.82 56.048-.08 8.046.3 16.098 1.15 24.153.85 8.056 2.16 16.225 3.94 24.508l-146.02 4.106c-1.11-5.665-1.87-11.056-2.28-16.171-.42-5.116-.6-10.066-.55-14.85.21-21.313 3.47-40.04 9.78-56.181 6.32-16.142 14.53-30.144 24.63-42.007 10.11-11.862 21.59-21.863 34.44-30.001 12.86-8.138 25.93-14.861 39.22-20.167 31.48-12.305 67.2-19.13 107.17-20.476 26.94.266 50.9 2.677 71.87 7.234 20.98 4.557 39.44 10.72 55.39 18.489 15.95 7.77 29.45 16.766 40.5 26.989 11.05 10.223 20 21.186 26.85 32.89 6.85 11.703 11.79 23.769 14.8 36.196 3.01 12.427 4.46 24.621 4.34 36.582-.12 12.832-2.51 24.771-7.15 35.817-4.63 11.047-11 21.207-19.11 30.479-8.1 9.273-17.6 17.716-28.47 25.33-10.88 7.614-22.5 14.405-34.87 20.373 10.64 4.455 20 9.223 28.08 14.305 8.08 5.082 15.17 10.372 21.27 15.87 6.1 5.498 11.28 10.986 15.52 16.465 4.24 5.48 7.73 10.734 10.47 15.764 6.62 12.027 10.68 24.03 12.19 36.007z" fill="#fff"/><path d="M648.568 675.312c-1.616 61.706-3.069 117.758-4.362 168.157-1.292 50.398-2.584 95.87-3.876 136.415-1.293 40.546-2.585 76.326-3.877 107.336l-3.392 81.42c-2.585 54.27-5.008 95.3-7.269 123.09-1.293 32.63-8.804 61.46-22.534 86.5-13.731 25.04-31.823 46.2-54.276 63.48-22.453 17.28-48.46 30.37-78.021 39.25-29.561 8.89-60.979 13.33-94.255 13.33-27.138 0-53.548-4.36-79.232-13.09-25.684-8.72-49.026-21.48-70.025-38.28-21-16.8-38.849-37.31-53.549-61.54-14.699-24.23-24.634-51.86-29.803-82.87l183.664-21.81c0 19.39 1.131 38.29 3.393 56.7 2.261 18.42 7.107 37.64 14.538 57.67 20.03-1.94 40.383-4.28 61.059-7.03 20.677-2.74 41.999-6.38 63.968-10.9 2.584-57.51 4.765-114.53 6.542-171.07a5428.967 5428.967 0 002.665-170.58c0-56.21-.807-112.181-2.423-167.91a7287.021 7287.021 0 00-6.784-167.43l177.849-20.838z" fill="#59e869" fill-rule="nonzero"/><path d="M452.092 1357.13c2.293-52.29 4.246-104.18 5.864-155.66 1.771-56.34 2.656-113 2.656-169.98 0-56.022-.805-111.807-2.415-167.351a7265.838 7265.838 0 00-6.766-166.986l-.941-18.08 217.969-25.538-.584 22.282c-1.615 61.702-3.069 117.751-4.361 168.147-1.293 50.443-2.587 95.955-3.88 136.535-1.295 40.621-2.589 76.461-3.884 107.531l-3.397 81.53c-2.587 54.32-5.016 95.44-7.282 123.36-1.468 35.68-9.85 67.19-24.879 94.59-15.032 27.42-34.845 50.58-59.428 69.51-24.251 18.66-52.316 32.84-84.244 42.44-31.305 9.41-64.574 14.14-99.814 14.14-29.265 0-57.746-4.7-85.443-14.11-27.833-9.45-53.124-23.28-75.88-41.49-22.734-18.18-42.082-40.37-57.996-66.61-15.918-26.23-26.744-56.12-32.341-89.71l-3.328-19.96 225.358-26.76v21.74c0 18.58 1.08 36.7 3.248 54.35 1.556 12.67 4.457 25.76 8.674 39.26 14.892-1.59 29.963-3.39 45.211-5.41 15.586-2.07 31.547-4.66 47.883-7.77zm196.476-681.818c-1.616 61.706-3.069 117.758-4.362 168.157-1.292 50.398-2.584 95.87-3.876 136.415-1.293 40.546-2.585 76.326-3.877 107.336l-3.392 81.42c-2.585 54.27-5.008 95.3-7.269 123.09-1.293 32.63-8.804 61.46-22.534 86.5-13.731 25.04-31.823 46.2-54.276 63.48-22.453 17.28-48.46 30.37-78.021 39.25-29.561 8.89-60.979 13.33-94.255 13.33-27.138 0-53.548-4.36-79.232-13.09-25.684-8.72-49.026-21.48-70.025-38.28-21-16.8-38.849-37.31-53.549-61.54-14.699-24.23-24.634-51.86-29.803-82.87l183.664-21.81c0 19.39 1.131 38.29 3.393 56.7 2.261 18.42 7.107 37.64 14.538 57.67 20.03-1.94 40.383-4.28 61.059-7.03 20.677-2.74 41.999-6.38 63.968-10.9 2.584-57.51 4.765-114.53 6.542-171.07a5428.967 5428.967 0 002.665-170.58c0-56.21-.807-112.181-2.423-167.91a7287.021 7287.021 0 00-6.784-167.43l177.849-20.838z" fill="#fff"/><path d="M1766.06 684.519c-7.11 72.044-11.87 143.119-14.3 213.225a6096.112 6096.112 0 00-3.63 210.316v37.07c0 12.44.32 24.96.97 37.56h-149.74c0-20.03.16-39.9.48-59.61.32-19.7.49-39.25.49-58.63 0-64.29-1.54-127.938-4.61-190.936a3542.995 3542.995 0 00-14.29-188.995h184.63z" fill="#59e869" fill-rule="nonzero"/><path d="M1787.37 665.205h-227.34l2.18 21.285a3514.772 3514.772 0 0114.22 187.964c3.06 62.688 4.58 126.016 4.58 189.996 0 19.28-.16 38.72-.48 58.32-.33 19.81-.49 39.78-.49 59.92V1202h189.39l-1.04-20.3c-.63-12.27-.95-24.46-.95-36.57v-37.07c0-69.88 1.21-139.765 3.63-209.649 2.41-69.702 7.14-140.367 14.21-211.996l2.09-21.21zm-21.31 19.314c-7.11 72.044-11.87 143.119-14.3 213.225a6096.112 6096.112 0 00-3.63 210.316v37.07c0 12.44.32 24.96.97 37.56h-149.74c0-20.03.16-39.9.48-59.61.32-19.7.49-39.25.49-58.63 0-64.29-1.54-127.938-4.61-190.936a3542.995 3542.995 0 00-14.29-188.995h184.63z" fill="#fff"/><path d="M677.347 490.527h-72.469l66.075 61.013-70.604 45.293-51.688-86.057-57.282 103.108-78.064-42.095 81.261-81.262h-95.382l14.121-80.728 94.316 24.512-4.796-73.002 90.587-6.661-9.858 78.064 87.389-22.913 6.394 80.728z" fill="#59e869" fill-rule="nonzero"/><path d="M606.306 406.782l82.078-21.52 9.868 124.58h-43.987l48.15 44.461-108.381 69.528-44.721-74.458L499 639.937l-117.686-63.462 66.633-66.633h-71.739l21.691-124.005 88.706 23.054-4.299-65.439 133.234-9.797-9.234 73.127zm71.041 83.745h-72.469l66.075 61.013-70.604 45.293-51.688-86.057-57.282 103.108-78.064-42.095 81.261-81.262h-95.382l14.121-80.728 94.316 24.512-4.796-73.002 90.587-6.661-9.858 78.064 87.389-22.913 6.394 80.728z" fill="#fff"/><path d="M1827.23 455.079c-35.76.051-71.61.679-107.57 1.884.41 13.651 1 27.204 1.79 40.662.79 13.457 1.77 26.914 2.94 40.371l-91.98 12.533c1.52-14.999 2.8-29.901 3.83-44.707 1.04-14.806 1.84-29.708 2.39-44.705-14.23.981-28.26 2.059-42.1 3.232l-41.52 3.52-.13-83.923c13.85-.405 27.69-.665 41.53-.781 13.85-.116 27.69-.472 41.53-1.068-.59-12.497-1.33-24.897-2.21-37.2a668.132 668.132 0 00-3.66-36.622l92-.131c-.95 11.922-1.75 23.747-2.4 35.476-.66 11.729-1.17 23.554-1.54 35.475 17.88-.987 35.71-2.118 53.49-3.393 17.79-1.275 35.62-2.79 53.49-4.546l.12 83.923z" fill="#59e869" fill-rule="nonzero"/><path d="M1617.59 363.476c-.34-5.753-.72-11.485-1.13-17.197a639.225 639.225 0 00-3.55-35.543l-2.79-21.744 134.85-.192-1.65 20.869c-.93 11.772-1.72 23.449-2.37 35.03-.26 4.607-.49 9.229-.7 13.866 10.68-.653 21.35-1.364 31.99-2.127 17.62-1.263 35.28-2.765 52.99-4.504l21.17-2.079.18 124.511-19.32.028c-29.13.041-58.32.468-87.58 1.286.3 6.965.65 13.903 1.05 20.815.78 13.275 1.75 26.55 2.91 39.824l1.59 18.331-134.5 18.326 2.47-24.39c1.49-14.8 2.75-29.504 3.78-44.113.52-7.479.98-14.983 1.38-22.511-6.78.521-13.51 1.065-20.2 1.632l-62.44 5.293-.18-123.699 18.78-.548c13.98-.409 27.96-.671 41.93-.788 7.12-.06 14.23-.184 21.34-.376zm209.64 91.603c-35.76.051-71.61.679-107.57 1.884.41 13.651 1 27.204 1.79 40.662.79 13.457 1.77 26.914 2.94 40.371l-91.98 12.533c1.52-14.999 2.8-29.901 3.83-44.707 1.04-14.806 1.84-29.708 2.39-44.705-14.23.981-28.26 2.059-42.1 3.232l-41.52 3.52-.13-83.923c13.85-.405 27.69-.665 41.53-.781 13.85-.116 27.69-.472 41.53-1.068-.59-12.497-1.33-24.897-2.21-37.2a668.132 668.132 0 00-3.66-36.622l92-.131c-.95 11.922-1.75 23.747-2.4 35.476-.66 11.729-1.17 23.554-1.54 35.475 17.88-.987 35.71-2.118 53.49-3.393 17.79-1.275 35.62-2.79 53.49-4.546l.12 83.923z" fill="#fff"/><path d="M1748.71 1562.86c-138.31-5.28-276.9-4.4-415.79 2.65v-128.18c69.29 1.47 138.52 2.43 207.67 2.87 69.15.44 138.53-1.4 208.12-5.51v128.17z" fill="#ff39a0" fill-rule="nonzero"/><path d="M1768.02 1582.93V1414.2l-20.45 1.21c-69.17 4.09-138.12 5.91-206.85 5.47-69.06-.44-138.19-1.39-207.39-2.86l-19.73-.41v168.22l20.29-1.03c138.32-7.02 276.35-7.9 414.08-2.64l20.05.77zm-19.31-20.07c-138.31-5.28-276.9-4.4-415.79 2.65v-128.18c69.29 1.47 138.52 2.43 207.67 2.87 69.15.44 138.53-1.4 208.12-5.51v128.17z" fill="#fff"/><g><path d="M1748.71 1385.8c-69.59-2.64-138.82-3.74-207.68-3.3-68.86.44-138.23 2.57-208.11 6.38v-128.17c69.29 1.47 138.52 2.42 207.67 2.86 69.15.44 138.53-1.39 208.12-5.5v127.73z" fill="#ff39a0" fill-rule="nonzero"/><path d="M1768.02 1405.86v-168.28l-20.45 1.21c-69.17 4.08-138.12 5.91-206.85 5.47-69.06-.44-138.19-1.39-207.39-2.86l-19.73-.42v168.3l20.37-1.11c69.57-3.8 138.64-5.92 207.19-6.36 68.57-.44 137.51.66 206.82 3.29l20.04.76zm-19.31-20.06c-69.59-2.64-138.82-3.74-207.68-3.3-68.86.44-138.23 2.57-208.11 6.38v-128.17c69.29 1.47 138.52 2.42 207.67 2.86 69.15.44 138.53-1.39 208.12-5.5v127.73z" fill="#fff"/></g></svg>